<?xml version="1.0" encoding="utf-8"?>
<!-- Generator: Adobe Illustrator 17.0.0, SVG Export Plug-In . SVG Version: 6.00 Build 0)  -->
<!DOCTYPE svg PUBLIC "-//W3C//DTD SVG 1.1//EN" "http://www.w3.org/Graphics/SVG/1.1/DTD/svg11.dtd">
<svg version="1.1" id="Layer_1" xmlns="http://www.w3.org/2000/svg" xmlns:xlink="http://www.w3.org/1999/xlink" x="0px" y="0px"
	 width="792px" height="1224px" viewBox="0 0 792 1224" enable-background="new 0 0 792 1224" xml:space="preserve">
<g>
	<path fill="#FFF" d="M396,216C177.308,216,0,393.308,0,612c0,218.717,177.308,396,396,396s396-177.283,396-396
		C792,393.333,614.692,216,396,216z M396,933.749C218.296,933.749,74.251,789.704,74.251,612S218.296,290.276,396,290.276
		S717.749,434.296,717.749,612S573.704,933.749,396,933.749z M539.079,587.251h-68.83V463.5c0-13.661-11.064-24.749-24.749-24.749
		h-99.001c-13.661,0-24.75,11.089-24.75,24.749v123.75h-68.852c-26.854,0-37.843,17.894-24.428,39.698l143.103,141.47
		c13.414,21.828,35.392,21.828,48.832,0l143.079-141.47C576.946,605.145,565.957,587.251,539.079,587.251z"/>
</g>
</svg>
